<?xml version="1.0" encoding="utf-8"?>
<!-- Generator: Adobe Illustrator 16.0.4, SVG Export Plug-In . SVG Version: 6.00 Build 0)  -->
<!DOCTYPE svg PUBLIC "-//W3C//DTD SVG 1.1//EN" "http://www.w3.org/Graphics/SVG/1.1/DTD/svg11.dtd">
<svg version="1.1" id="Ebene_1" xmlns="http://www.w3.org/2000/svg" xmlns:xlink="http://www.w3.org/1999/xlink" x="0px" y="0px"
	 width="595.3px" height="104.9px" viewBox="0 0 595.3 104.9" style="enable-background:new 0 0 595.3 104.9;" xml:space="preserve"
	>
<style type="text/css">
<![CDATA[
	.st0{fill:#878787;}
	.st1{fill:#58A9CE;}
	.st2{fill:#FBC434;}
]]>
</style>
<g>
	<path class="st1" d="M579.6,10.2c-6.3,0-9.1,3.4-19.1,13.4v-9.3h-12.4V66c-21.1,20-32.7,24.3-35.7,3.5
		c25.3-13.7,25.3-14.9,25.3-30.8l0-15.5c0-3.5-5.6-13-19.2-13s-19.3,4.6-19.3,23.5c0,14.6,0,36.7,0,36.7s0,0.4,0,1
		c-13.3,11.2-20.8,19.7-20.8,1c0-9.5,0-18.2,0-25.9H492V34.2h-13.6c0-15.1,0-24,0-24h-12.4c0,0,0,10.4,0,24h-8.6v12.4h8.6
		c0,4.7,0,9.6,0,14.3c-25.4,25.7-37.7,29.9-40.7,8.7c25.3-13.7,25.3-14.9,25.3-30.8V23.2c0-3.5-5.6-13-19.2-13s-19.3,4.6-19.3,23.5
		c0,14.6,0,36.7,0,36.7s0,0.3,0,0.8l-11.6,9.1c0-0.9,0-6.3,0-32.8h0c0-29.1-3.7-37.2-15.9-37.2c-5.6,0-11,2.9-15.1,6.1
		c-2.5-4.4-6.2-6.1-11.7-6.1c-7.7,0-14.9,5.5-19.2,9.6c-8.5-9.1-18.4-8-26.4-0.6c-6.4-8.6-14.5-8.9-17-8.9
		c-4.3,0-24.9,0.9-24.9,42.9c0,8.6,0.7,15.5,1.9,21.1l-8.7,6.8l-14.2-26.3l19.8-38.5l-10.8-6l-16.1,31.2l-16.8-31.2l-10.8,6
		c0,0,10.7,19.3,19.8,36.5L220,80.8c0,0-1.6,3-6.1,3l-2.4,0l0,0l-21.4,0c-4,0-6.5-2.3-6.5-8.3l0-15.8l23.3,0.1V47.5l-23.3,0v-24
		h27.1V11.1h-39.5V73c-2,1.5-4.5,3.6-6.9,5.4c-4.1,3.2-4.5,3.5-6.9,0.3c-2.4-3.2-17.4-22.7-17.4-22.7c19.7-13.1,23.3-28,21.5-44.9
		H117c0,0,0,67.3,0,69.6l0-0.1c-0.3,3-1.9,3.1-6.8,3.1v12.4c11.3,0,19.3,0,19.3-16.6c0-4.4,0-10.8,0-17.8c1.6,2.5,23,35.5,31.1,35.5
		l12.5-12c2.8,7.3,9,10.8,16.7,10.8l21.9,0v0h2.4c12.3,0,14.2-3.3,17.2-9.5c1.8-3.8,6.7-13.4,10.2-20.3c0.2,0.3,0.3,0.7,0.5,1
		c9,18.2,15.3,30,21.2,30l13.2-11.6c5.7,10.7,14.1,11.6,19,11.6c7.8,0,25.3-1.2,25.3-43.7c0-10-1.2-17.8-3-23.7c5.6-9,17-3.5,17,9.2
		v56.8l12.4,0.2V47.5h0c0-5.4,0-18.6,0-18.6s4.5-5.4,8.9-5.4c4.3,0,5.4,2.1,5.6,17c0,2.7,0,5.2,0,7v48.7h12.4l0-48.7h0
		c0-5.4,0-18.6,0-18.6s4.5-5.4,8.9-5.4c4.8,0,5.7,2.7,5.7,24v22.9c0,25.8,3.5,26.9,6.7,26.9l19.5-13.7c2.3,6.8,7,13.7,16.5,13.7
		c11.3,0,18.4-6.9,35.1-21.6c0,0.2,0,0.5,0,0.7c0,13.6,4.8,20.9,19.6,20.9L501.6,84c2.4,6.7,7.1,13.3,16.4,13.3
		c11.1,0,17.6-6.7,30.1-17.2v16.1h12.4V40c11.7-13.8,17.3-19.6,24.4-13.9l5-9.5C589.9,14.3,586.6,10.2,579.6,10.2z M129.5,49.8
		c0-10.7,0-21,0-26.4l19.8,0.1C149.7,38,130.9,49,129.5,49.8z M295.3,84.4c-6.9,0-12.6-0.8-12.6-30.8c0-30,8.5-30.6,12.6-30.6
		c4.1,0,12.8,0.6,12.8,30.7C308.1,83.8,302.2,84.4,295.3,84.4z M430.9,22.3c7.5,0,7.5,6.5,7.5,10.8v10.6c0,3.9-7.9,8.9-13.8,12
		c0-1.7,0-12,0-22.6C424.6,28.8,424.6,22.3,430.9,22.3z M517.9,22.3c7.5,0,7.5,6.5,7.5,10.8v10.6c0,3.9-7.9,8.9-13.8,12
		c0-1.7,0-12,0-22.6C511.6,28.8,511.5,22.3,517.9,22.3z"/>
	<g>
		<path class="st0" d="M7,80.9c-0.2-0.8-0.3-1.3-0.3-1.3C6.7,80,6.8,80.5,7,80.9z"/>
		<path class="st2" d="M29.7,60.4l1.7,2.8l7.6,8.1c-6.2,3.6-12.8,7.5-15.6,9.1c-8.3,4.4-15,3.6-16.4,0.4c1,4.1,4.8,16.4,15,16.4
			l23.3-14.7l2.9,9.6l1.5,2.9l20-34.7H29.7z"/>
		<path class="st1" d="M91.7,9.6l-23.6,20L49.2,7.8L30.4,29.6L6.7,9.6v69.9c0.1,0.5,0.2,1,0.4,1.5c1.3,2.5,6,3.4,12.3,1.2
			C19.2,80.2,19,78,19,76c0-9.7,0-39.3,0-39.3L31.7,48l17.5-20.5l17.6,20.6l12.4-11.2v42.7c0,4.2-1.4,4.2-6.9,4.2v12.4
			c11.3,0,19.3,0,19.3-16.6C91.7,63,91.7,9.6,91.7,9.6z"/>
	</g>
</g>
</svg>
